<?xml version="1.0" encoding="utf-8"?>
<!-- Generator: Adobe Illustrator 24.0.0, SVG Export Plug-In . SVG Version: 6.00 Build 0)  -->
<svg version="1.1" id="Layer_1" xmlns="http://www.w3.org/2000/svg" xmlns:xlink="http://www.w3.org/1999/xlink" x="0px" y="0px"
	 viewBox="0 0 108 108" style="enable-background:new 0 0 108 108;" xml:space="preserve">
<style type="text/css">
	.st0{fill:#9D581F;}
	.st1{fill:#FFFFFF;}
</style>
<circle class="st0" cx="54" cy="54" r="54"/>
<g>
	<path class="st1" d="M81.1,37.6H27.7c-1.3,0-2.4-1.1-2.4-2.4v-7.7c0-1.3,1.1-2.4,2.4-2.4h53.4c1.3,0,2.4,1.1,2.4,2.4v7.7
		C83.5,36.5,82.5,37.6,81.1,37.6z"/>
	<path class="st1" d="M81.1,60.4H27.7c-1.3,0-2.4-1.1-2.4-2.4v-7.7c0-1.3,1.1-2.4,2.4-2.4h53.4c1.3,0,2.4,1.1,2.4,2.4V58
		C83.5,59.3,82.5,60.4,81.1,60.4z"/>
	<path class="st1" d="M81.1,83.2H27.7c-1.3,0-2.4-1.1-2.4-2.4v-7.7c0-1.3,1.1-2.4,2.4-2.4h53.4c1.3,0,2.4,1.1,2.4,2.4v7.7
		C83.5,82.2,82.5,83.2,81.1,83.2z"/>
</g>
</svg>
