<?xml version="1.0" encoding="utf-8"?>
<!-- Generator: Adobe Illustrator 24.0.0, SVG Export Plug-In . SVG Version: 6.00 Build 0)  -->
<svg version="1.1" id="Layer_1" xmlns="http://www.w3.org/2000/svg" xmlns:xlink="http://www.w3.org/1999/xlink" x="0px" y="0px"
	 viewBox="0 0 108 108" style="enable-background:new 0 0 108 108;" xml:space="preserve">
<style type="text/css">
	.st0{fill:#FFDA8B;}
	.st1{fill:#9D581F;}
	.st2{fill:#FFFFFF;}
</style>
<g>
	
		<rect x="16.8" y="17" transform="matrix(0.7071 -0.7071 0.7071 0.7071 -22.5219 54.1436)" class="st0" width="74.6" height="74.6"/>
	<g>
		<g>
			<g>
				<path class="st1" d="M54,108L0,54L54,0l54,54L54,108z M2,54l52,52l52-52L54,2L2,54z"/>
			</g>
		</g>
		<g>
			<g>
				<path class="st1" d="M1.1,54.2c0,0,23.3-5.6,53.1-5.5c30.3,0,52.6,5.5,52.6,5.5L53.7,1L1.1,54.2z"/>
			</g>
			<g>
				<g>
					<polygon class="st2" points="53.7,18.7 53.7,16.2 51.7,16.2 51.2,18.7 					"/>
				</g>
				<g>
					<polygon class="st2" points="53.7,15.5 53.8,13.9 52.1,13.9 51.8,15.5 					"/>
				</g>
				<g>
					<polygon class="st2" points="53.8,13.2 53.8,12.2 52.3,12.2 52.2,13.2 					"/>
				</g>
				<g>
					<polygon class="st2" points="55.1,8.1 55,7.6 54.2,7.6 54.2,8.1 					"/>
				</g>
				<g>
					<polygon class="st2" points="53.4,30.3 53.5,24.3 50.3,24.2 49.3,30.3 					"/>
				</g>
				<g>
					<polygon class="st2" points="53.6,23.4 53.7,19.6 51.1,19.6 50.5,23.3 					"/>
				</g>
				<g>
					<polygon class="st2" points="53.9,8.1 53.9,7.6 53.1,7.6 53,8.1 					"/>
				</g>
				<g>
					<polygon class="st2" points="53.9,8.5 53,8.5 52.9,9.1 53.9,9.1 					"/>
				</g>
				<g>
					<polygon class="st2" points="53.8,11.6 53.9,10.8 52.6,10.8 52.4,11.6 					"/>
				</g>
				<g>
					<polygon class="st2" points="53.9,9.6 52.8,9.6 52.6,10.4 53.9,10.4 					"/>
				</g>
				<g>
					<polygon class="st2" points="54.4,16.2 54.4,18.7 56.9,18.7 56.4,16.2 					"/>
				</g>
				<g>
					<polygon class="st2" points="54.2,9.1 55.3,9.1 55.2,8.5 54.2,8.5 					"/>
				</g>
				<g>
					<polygon class="st2" points="55.5,10.4 55.3,9.6 54.2,9.6 54.2,10.4 					"/>
				</g>
				<g>
					<polygon class="st2" points="55.7,11.6 55.5,10.8 54.2,10.8 54.3,11.6 					"/>
				</g>
				<g>
					<polygon class="st2" points="59,31.7 54.7,31.7 54.9,42.8 60.9,42.8 					"/>
				</g>
				<g>
					<polygon class="st2" points="53.4,31.7 49,31.7 47.2,42.8 53.1,42.8 					"/>
				</g>
				<g>
					<polygon class="st2" points="54.3,12.2 54.3,13.2 55.9,13.2 55.8,12.2 					"/>
				</g>
				<g>
					<polygon class="st2" points="54.4,19.6 54.5,23.4 57.6,23.4 57,19.6 					"/>
				</g>
				<g>
					<polygon class="st2" points="54.6,30.3 58.8,30.4 57.8,24.3 54.5,24.3 					"/>
				</g>
				<g>
					<polygon class="st2" points="54.3,13.9 54.3,15.5 56.3,15.5 56.1,13.9 					"/>
				</g>
			</g>
			<g>
				<polygon class="st2" points="38.7,43.2 45,42.9 45.9,36 40.9,36.2 				"/>
			</g>
			<g>
				<path class="st2" d="M43.8,35.6c1.5-0.1,2.6-0.6,2.5-1.2c0-0.6-1.1-1.1-2.6-1c-1.5,0.1-2.5,0.6-2.4,1.2
					C41.3,35.2,42.3,35.7,43.8,35.6"/>
			</g>
			<g>
				<path class="st2" d="M81.1,44.2l-4.5-7.3l5.8,0.5l0.5,0.7c0,0,0.3-0.5,0.8-0.5c1.2,0,4.1,0.4,4.8,0.5c1.2,0.2,1.7,0.9,1.7,0.9
					l2.6,2.7L87.2,41l-0.8-0.8c0,0-0.4-0.3-1.1-0.3c-1,0-0.4,0.6-0.4,0.6l3.3,4.4L81.1,44.2z"/>
			</g>
			<g>
				<path class="st2" d="M77.8,42.4l-1.4-2.1L71.4,40l0.5,0.8c0,0,0.3,0.6-0.3,0.7c-0.4,0-1.9,0.1-2.3-0.1c-0.3-0.2-1-2-1-2l7.8,0.3
					l-1.8-2.7c0,0-0.2-0.3-0.6-0.5c-0.3-0.1-0.7-0.1-0.7-0.1L64.5,36c0,0-1.1-0.1-1.7,0.4c-0.6,0.5-0.4,1.4-0.4,1.4l0.9,4.5
					c0,0,0.2,0.5,0.7,0.7c0.6,0.2,1.4,0.2,1.4,0.2l12.1,0.5c0,0,0.3,0,0.4-0.4C78,42.7,77.8,42.4,77.8,42.4z M68,38.6l-0.3-0.8
					c0,0-0.2-0.4,0.3-0.4c0.4,0,1.7,0.1,1.9,0.1c0.3,0,0.3,0.1,0.5,0.5c0.3,0.5,0.4,0.8,0.1,0.8c-0.3,0-1.9-0.1-1.9-0.1
					s-0.2,0-0.3-0.1C68,38.6,68,38.6,68,38.6z"/>
			</g>
			<g>
				<path class="st2" d="M18.8,38.3l-7.3,7.9l6.9-0.9c0,0,3.1-3.5,3.6-4.2c0.5-0.7,0.8-0.8,1.3-0.8c0.5,0,0.6,0.2,0.4,0.7
					c-0.2,0.5-2.9,4-2.9,4l6.6-0.8c0,0,2.5-3.8,2.8-4.3c0.3-0.5,0.9-0.7,1.3-0.7c0.4,0,0.6,0.2,0.3,0.8c-0.2,0.6-2.3,4-2.3,4
					l6.2-0.5c0,0,2.1-4.4,2.3-5.3c0.3-0.9,0-1.7-0.9-1.7c-0.9,0-3.5,0.2-4.1,0.3c-0.6,0.1-1.2,0.2-1.6,0.5c-0.3,0.3-0.6,0.7-0.6,0.7
					s0.1-0.6-0.4-0.8c-0.6-0.2-4.3,0.3-4.9,0.4c-0.7,0.1-1,0.4-1.3,0.6c-0.3,0.2-0.6,0.6-0.6,0.6l0.7-1.1L18.8,38.3z"/>
			</g>
		</g>
	</g>
	<g>
		<path class="st1" d="M15.3,64.5v-8.6h4.6v1.7h-2.6v1.6h2.5v1.7h-2.5v1.9h2.7v1.7H15.3z"/>
		<path class="st1" d="M22.7,59.7L22.7,59.7l0.2,4.8H21v-8.6h2.1l1.6,4.8h0l-0.2-4.8h1.9v8.6h-2.1L22.7,59.7z"/>
		<path class="st1" d="M28.8,64.5L27,55.9h2l1,6h0l1-6h2l-1.9,8.6H28.8z"/>
		<path class="st1" d="M33.8,64.5v-8.6h2v8.6H33.8z"/>
		<path class="st1" d="M38.9,64.5h-2v-8.6h2.9c1.6,0,2.5,0.7,2.5,2.4c0,0.9-0.2,1.6-1.1,2v0c0.6,0.1,1,0.5,1,1.1
			c0.1,0.7,0.1,2.2,0.2,2.7c0,0.1,0.1,0.2,0.2,0.3v0.1h-2.2c-0.1-0.2-0.1-0.3-0.1-0.5c0-0.8,0-1.5,0-2c-0.1-0.5-0.2-0.9-0.7-0.9
			h-0.7V64.5z M38.9,59.5h0.7c0.6,0,0.7-0.5,0.7-1.1c0-1-0.4-1.1-1.4-1V59.5z"/>
		<path class="st1" d="M48.7,61.7c0,1.9-0.7,2.9-2.7,2.9c-2,0-2.7-1-2.7-2.9v-3.5c0-1.6,1-2.6,2.7-2.6c1.8,0,2.7,0.9,2.7,2.6V61.7z
			 M46.6,58.4c0-0.5,0-1.2-0.7-1.2c-0.6,0-0.7,0.6-0.7,1.2v3.5c0,0.5,0.1,1.2,0.7,1.2c0.7,0,0.7-0.7,0.7-1.2V58.4z"/>
		<path class="st1" d="M51.3,59.7L51.3,59.7l0.2,4.8h-1.9v-8.6h2.1l1.6,4.8h0l-0.2-4.8H55v8.6h-2.1L51.3,59.7z"/>
		<path class="st1" d="M56,64.5v-8.6h2.8l1,5.1h0l1.1-5.1h2.8v8.6h-1.9l0.2-6.7h0l-1.4,6.7h-1.5l-1.4-6.7h0l0.2,6.7H56z"/>
		<path class="st1" d="M64.9,64.5v-8.6h4.6v1.7h-2.6v1.6h2.5v1.7h-2.5v1.9h2.7v1.7H64.9z"/>
		<path class="st1" d="M72.3,59.7L72.3,59.7l0.2,4.8h-1.9v-8.6h2.1l1.6,4.8h0L74,55.9h1.9v8.6h-2.1L72.3,59.7z"/>
		<path class="st1" d="M76.7,55.9h5.2v1.7h-1.6v6.9h-2v-6.9h-1.6V55.9z"/>
		<path class="st1" d="M81.6,64.5l1.9-8.6h2.4l1.9,8.6h-2l-0.3-1.7h-1.6l-0.2,1.7H81.6z M84.7,57.4L84.7,57.4l-0.6,3.8h1.2
			L84.7,57.4z"/>
		<path class="st1" d="M88.3,64.5v-8.6h2v6.9h2.5v1.7H88.3z"/>
		<path class="st1" d="M30.5,70v-0.4c0-0.6-0.2-0.9-0.5-0.9c-0.5,0-0.6,0.3-0.6,0.7l0,3.4c0,0.4,0.2,0.6,0.6,0.6
			c0.6,0,0.6-0.6,0.6-1v-0.6h1.6v0.9c0,1.2-0.7,2-2.3,2c-1.5,0-2.1-0.8-2.1-2.2v-2.8c0-1.5,0.7-2.2,2.2-2.2c1.4,0,2.2,0.6,2.2,2V70
			H30.5z"/>
		<path class="st1" d="M37.3,72.3c0,1.6-0.5,2.4-2.2,2.4c-1.6,0-2.2-0.8-2.2-2.4v-2.8c0-1.3,0.8-2.1,2.2-2.1c1.4,0,2.2,0.7,2.2,2.1
			V72.3z M35.7,69.6c0-0.4,0-0.9-0.6-0.9c-0.5,0-0.6,0.5-0.6,0.9v2.8c0,0.4,0.1,1,0.6,1c0.5,0,0.6-0.6,0.6-1V69.6z"/>
		<path class="st1" d="M39.7,74.5H38v-6.9h2.4c1.3,0,2,0.5,2,1.9c0,0.7-0.2,1.3-0.9,1.6v0c0.5,0.1,0.8,0.4,0.8,0.9
			c0,0.6,0.1,1.7,0.1,2.2c0,0.1,0.1,0.2,0.2,0.2v0.1h-1.8c0-0.1-0.1-0.3-0.1-0.4c0-0.6,0-1.2,0-1.6c0-0.4-0.2-0.7-0.6-0.7h-0.5V74.5
			z M39.7,70.6h0.6c0.5,0,0.6-0.4,0.6-0.9c0-0.8-0.3-0.9-1.1-0.8V70.6z"/>
		<path class="st1" d="M43.3,74.5v-6.9h1.9c0.6,0,1.5,0.1,2,0.6c0.4,0.4,0.5,0.9,0.5,1.5c0,0.7-0.2,1.6-0.9,1.9
			c-0.6,0.3-1.2,0.2-1.8,0.2v2.7H43.3z M44.9,70.6c0.3,0,0.7,0,0.9-0.2c0.2-0.2,0.2-0.5,0.2-0.7c0-0.3,0-0.7-0.3-0.8
			c-0.2-0.1-0.4-0.1-0.6-0.1h-0.2V70.6z"/>
		<path class="st1" d="M52.7,72.3c0,1.6-0.5,2.4-2.2,2.4c-1.6,0-2.2-0.8-2.2-2.4v-2.8c0-1.3,0.8-2.1,2.2-2.1c1.4,0,2.2,0.7,2.2,2.1
			V72.3z M51.1,69.6c0-0.4,0-0.9-0.6-0.9c-0.5,0-0.6,0.5-0.6,0.9v2.8c0,0.4,0.1,1,0.6,1c0.5,0,0.6-0.6,0.6-1V69.6z"/>
		<path class="st1" d="M55.1,74.5h-1.6v-6.9h2.4c1.3,0,2,0.5,2,1.9c0,0.7-0.2,1.3-0.9,1.6v0c0.5,0.1,0.8,0.4,0.8,0.9
			c0,0.6,0.1,1.7,0.1,2.2c0,0.1,0.1,0.2,0.2,0.2v0.1h-1.8c0-0.1-0.1-0.3-0.1-0.4c0-0.6,0-1.2,0-1.6c0-0.4-0.2-0.7-0.6-0.7h-0.5V74.5
			z M55.1,70.6h0.6c0.5,0,0.6-0.4,0.6-0.9c0-0.8-0.3-0.9-1.1-0.8V70.6z"/>
		<path class="st1" d="M58.3,74.5l1.5-6.9h2l1.5,6.9h-1.6l-0.2-1.4h-1.3L60,74.5H58.3z M60.8,68.9L60.8,68.9L60.3,72h0.9L60.8,68.9z
			"/>
		<path class="st1" d="M63.1,67.6h4.2V69H66v5.6h-1.6V69h-1.3V67.6z"/>
		<path class="st1" d="M68,74.5v-6.9h1.6v6.9H68z"/>
		<path class="st1" d="M74.8,72.3c0,1.6-0.5,2.4-2.2,2.4c-1.6,0-2.2-0.8-2.2-2.4v-2.8c0-1.3,0.8-2.1,2.2-2.1c1.4,0,2.2,0.7,2.2,2.1
			V72.3z M73.2,69.6c0-0.4,0-0.9-0.6-0.9c-0.5,0-0.6,0.5-0.6,0.9v2.8c0,0.4,0.1,1,0.6,1c0.5,0,0.6-0.6,0.6-1V69.6z"/>
		<path class="st1" d="M77,70.7L77,70.7l0.1,3.9h-1.5v-6.9h1.7l1.3,3.9h0l-0.2-3.9H80v6.9h-1.7L77,70.7z"/>
	</g>
</g>
</svg>
